# xmcd
#
# Track frame offsets:
#	150
#	9965
#	22990
#	38078
#	50812
#	66576
#	81109
#	91094
#	105759
#	116763
#	122598
#
# Disc length: 1778 seconds
# Revision: 0
# Processed by: cddbd v1.5.2PL0 Copyright (c) Steve Scherf et al.
# Submitted via: dBpowerAMP V12.0
#
DISCID=7f06f00b
DTITLE=Sleepy Man Banjo Boys - The Farthest Horizon
DYEAR=2012
DGENRE=Country
TTITLE0=Time Lapse
TTITLE1=The Farthest Horizon
TTITLE2=Gold Rush
TTITLE3=Lexie Lou
TTITLE4=How Deep the Father's Love for Us
TTITLE5=The Man From Danville
TTITLE6=Jonny's Tune
TTITLE7=When the Angels Carry Me Home
TTITLE8=Always the One
TTITLE9=Farewell Darling
TTITLE10=Shuckin' the Corn
EXTD=
EXTT0=
EXTT1=
EXTT2=
EXTT3=
EXTT4=
EXTT5=
EXTT6=
EXTT7=
EXTT8=
EXTT9=
EXTT10=
PLAYORDER=
